<svg width="24" height="24" viewBox="0 0 24 24" fill="none" xmlns="http://www.w3.org/2000/svg">
<g id="ant-design:dislike-outlined">
<path id="Vector" d="M20.7633 11.4915C20.8477 11.2103 20.8898 10.9196 20.8898 10.6243C20.8898 9.96105 20.6719 9.32355 20.2781 8.80324C20.3625 8.52199 20.4047 8.23137 20.4047 7.93605C20.4047 7.27277 20.1867 6.63527 19.793 6.11496C19.8773 5.83371 19.9195 5.54309 19.9195 5.24777C19.9195 4.0384 19.2 2.94855 18.0844 2.47277C17.8883 2.38823 17.6768 2.34514 17.4633 2.34621H3.375C2.96016 2.34621 2.625 2.68137 2.625 3.09621V11.6275C2.625 12.0423 2.96016 12.3775 3.375 12.3775H6.40547L8.41641 19.6618C8.73984 20.8361 9.81797 21.6564 11.0367 21.6564C11.7328 21.6564 12.382 21.3798 12.8625 20.8736C13.343 20.3696 13.5891 19.7087 13.5539 19.0126L13.4133 16.1321H19.0359C19.3195 16.1321 19.5961 16.0571 19.8398 15.9142C20.7867 15.3634 21.375 14.365 21.375 13.3126C21.375 12.6493 21.157 12.0118 20.7633 11.4915ZM4.3125 10.6876V4.03137H6.21094V10.6876H4.3125ZM19.0125 14.447H11.6437L11.8687 19.097C11.8828 19.3759 11.7586 19.6384 11.5266 19.8118C11.3836 19.9173 11.2078 19.9712 11.032 19.9689C10.8075 19.9667 10.5896 19.8917 10.4113 19.7552C10.233 19.6187 10.1037 19.428 10.043 19.2118L7.71094 10.7626V4.03137H17.4469C17.6811 4.13636 17.8801 4.30679 18.0198 4.52217C18.1595 4.73755 18.234 4.98871 18.2344 5.24543C18.2344 5.47277 18.1805 5.6884 18.0727 5.88527L17.7469 6.48059L18.2602 6.9259C18.4046 7.05103 18.5204 7.20581 18.5997 7.37972C18.679 7.55364 18.7199 7.74259 18.7195 7.93371C18.7195 8.16105 18.6656 8.37668 18.5578 8.57355L18.232 9.16887L18.7453 9.61418C18.8898 9.73931 19.0056 9.89409 19.0849 10.068C19.1641 10.2419 19.205 10.4309 19.2047 10.622C19.2047 10.8493 19.1508 11.065 19.043 11.2618L18.7148 11.8595L19.2281 12.3048C19.3726 12.4299 19.4884 12.5847 19.5677 12.7586C19.647 12.9325 19.6878 13.1215 19.6875 13.3126C19.6875 13.7603 19.4297 14.1915 19.0125 14.447Z" fill="#655A5A"/>
</g>
</svg>
