<svg width="16" height="16" viewBox="0 0 16 16" fill="none" xmlns="http://www.w3.org/2000/svg">
<g id="ant-design:star-filled">
<path id="Vector" d="M9.88977 5.39781L9.77346 5.16201L8.00049 1.56764C7.99979 1.56789 7.99938 1.56818 7.99926 1.56827C7.99926 1.56828 7.99925 1.56828 7.99925 1.56828C7.99923 1.5683 7.99923 1.5683 7.99924 1.56829L9.88977 5.39781ZM9.88977 5.39781L10.15 5.43563M9.88977 5.39781L10.15 5.43563M8.44844 1.34551C8.4 1.24708 8.32031 1.16739 8.22187 1.11895L8.44844 1.34551ZM8.44844 1.34551L10.2219 4.94083L8.44844 1.34551ZM8.00096 1.56749C8.00104 1.56747 8.00112 1.56745 8.00119 1.56744C8.00156 1.56736 8.00165 1.56739 8.00137 1.56738C8.00132 1.56738 8.00127 1.56737 8.00122 1.56737C8.00095 1.56734 8.00071 1.56729 8.00056 1.56725C8.00053 1.56724 8.00051 1.56724 8.00049 1.56723C8.00033 1.56719 8.00032 1.56719 8.00054 1.56729L8.00095 1.5675M8.00096 1.56749L8.00095 1.5675M8.00096 1.56749C8.00101 1.56752 8.00106 1.56755 8.00112 1.56758L8.00095 1.5675M8.00096 1.56749L8.00095 1.5675M10.15 5.43563L14.1156 6.01196L14.1156 6.01197L14.1162 6.0121L14.1161 6.01299L14.1157 6.01341M10.15 5.43563L1.88324 6.01213L1.88338 6.01248L1.88342 6.01251L4.75373 8.81094L4.94194 8.99444L4.89748 9.25352L4.21951 13.2042L7.76732 11.3389L8 11.2166L8.23268 11.3389L11.7805 13.2042L11.1025 9.25352L11.0581 8.99444L11.2463 8.81094L14.1157 6.01341M14.1157 6.01341L14.116 6.01387L14.116 6.01373L14.1157 6.01341ZM11.781 13.2044C11.781 13.2044 11.781 13.2043 11.781 13.2043M11.781 13.2044L11.7808 13.2043C11.7809 13.2043 11.7809 13.2043 11.781 13.2043M11.781 13.2044L11.7809 13.2044M11.781 13.2044L11.7809 13.2044M11.781 13.2043C11.7813 13.2042 11.7814 13.2042 11.7814 13.2042C11.7814 13.2042 11.7812 13.2043 11.7809 13.2044M11.781 13.2043C11.781 13.2042 11.781 13.2042 11.781 13.2042C11.7811 13.204 11.7811 13.2041 11.781 13.2043C11.7809 13.2043 11.7809 13.2044 11.7809 13.2044M11.7809 13.2044L11.7809 13.2044M11.7809 13.2044C11.7809 13.2044 11.7809 13.2044 11.7809 13.2045C11.7808 13.2045 11.7807 13.2046 11.7807 13.2046C11.7807 13.2046 11.7808 13.2045 11.7809 13.2044M7.99885 1.56899L7.99998 1.5667L7.55156 1.34551L7.99877 1.56912L7.99885 1.56899ZM1.88165 6.01236L1.88178 6.01235L1.88211 6.01267L1.88165 6.01236Z" stroke="black"/>
</g>
</svg>
