<svg width="24" height="24" viewBox="0 0 24 24" fill="none" xmlns="http://www.w3.org/2000/svg">
<g id="ant-design:star-filled">
<path id="Vector" d="M21.2836 8.27559L15.3328 7.41075L12.6727 2.01778C12.6 1.87013 12.4805 1.75059 12.3328 1.67794C11.9625 1.49513 11.5125 1.64747 11.3274 2.01778L8.6672 7.41075L2.71642 8.27559C2.55236 8.29903 2.40236 8.37638 2.28751 8.49356C2.14867 8.63627 2.07217 8.82825 2.0748 9.02733C2.07744 9.22642 2.15901 9.41631 2.30158 9.55528L6.60704 13.7529L5.58986 19.6803C5.566 19.8182 5.58126 19.96 5.6339 20.0896C5.68654 20.2193 5.77445 20.3316 5.88767 20.4138C6.00089 20.496 6.13489 20.5449 6.27447 20.5549C6.41404 20.5648 6.55362 20.5355 6.67736 20.4701L12 17.6717L17.3227 20.4701C17.468 20.5475 17.6367 20.5732 17.7985 20.5451C18.2063 20.4748 18.4805 20.0881 18.4102 19.6803L17.393 13.7529L21.6985 9.55528C21.8156 9.44044 21.893 9.29044 21.9164 9.12638C21.9797 8.71622 21.6938 8.33653 21.2836 8.27559Z" fill="#F1C31E"/>
</g>
</svg>
