<svg width="24" height="24" viewBox="0 0 24 24" fill="none" xmlns="http://www.w3.org/2000/svg">
<g id="bi:search" clip-path="url(#clip0_340_3671)">
<path id="Vector" d="M17.613 15.5161C19.0654 13.5342 19.716 11.0769 19.4345 8.63587C19.1529 6.19486 17.9601 3.95016 16.0947 2.35085C14.2292 0.751532 11.8286 -0.0844439 9.37326 0.0101658C6.91789 0.104776 4.58878 1.12299 2.85191 2.86111C1.11503 4.59923 0.0984798 6.92907 0.00562703 9.3845C-0.0872257 11.8399 0.750468 14.2399 2.35112 16.1042C3.95176 17.9685 6.19732 19.1598 8.63853 19.4395C11.0797 19.7193 13.5366 19.067 15.5175 17.6131H15.516C15.561 17.6731 15.609 17.7302 15.663 17.7857L21.438 23.5606C21.7193 23.8421 22.1008 24.0003 22.4987 24.0005C22.8966 24.0006 23.2783 23.8427 23.5598 23.5614C23.8412 23.2801 23.9994 22.8986 23.9996 22.5007C23.9997 22.1028 23.8418 21.7211 23.5605 21.4397L17.7855 15.6646C17.7319 15.6104 17.6742 15.5602 17.613 15.5147V15.5161ZM18 9.75015C18 10.8336 17.7866 11.9064 17.372 12.9073C16.9574 13.9082 16.3497 14.8177 15.5836 15.5838C14.8176 16.3499 13.9081 16.9576 12.9071 17.3722C11.9062 17.7868 10.8334 18.0002 9.75 18.0002C8.6666 18.0002 7.5938 17.7868 6.59287 17.3722C5.59193 16.9576 4.68246 16.3499 3.91637 15.5838C3.15029 14.8177 2.5426 13.9082 2.128 12.9073C1.7134 11.9064 1.5 10.8336 1.5 9.75015C1.5 7.56211 2.3692 5.4637 3.91637 3.91652C5.46355 2.36935 7.56197 1.50015 9.75 1.50015C11.938 1.50015 14.0365 2.36935 15.5836 3.91652C17.1308 5.4637 18 7.56211 18 9.75015Z" fill="#444444"/>
</g>
<defs>
<clipPath id="clip0_340_3671">
<rect width="24" height="24" fill="white"/>
</clipPath>
</defs>
</svg>
